<?xml version="1.0" standalone="no"?>
<!DOCTYPE svg PUBLIC "-//W3C//DTD SVG 20010904//EN"
 "http://www.w3.org/TR/2001/REC-SVG-20010904/DTD/svg10.dtd">
<svg version="1.0" xmlns="http://www.w3.org/2000/svg"
 width="512.000000pt" height="512.000000pt" viewBox="0 0 512.000000 512.000000"
 preserveAspectRatio="xMidYMid meet">
<metadata>
Created by potrace 1.14, written by Peter Selinger 2001-2017
</metadata>
<g transform="translate(0.000000,512.000000) scale(0.100000,-0.100000)"
fill="#000000" stroke="none">
<path d="M2320 4949 c-244 -30 -398 -67 -615 -147 -582 -216 -1087 -697 -1342
-1277 -85 -195 -156 -444 -179 -630 -3 -27 -9 -77 -14 -110 -11 -81 -5 -445 8
-525 6 -36 14 -85 17 -110 39 -277 189 -653 367 -919 224 -334 529 -609 888
-798 177 -94 483 -202 645 -228 11 -2 47 -8 80 -14 196 -35 583 -36 768 0 28
5 66 12 82 15 177 31 400 106 597 203 356 174 675 448 903 776 39 55 75 109
81 120 6 11 28 49 49 85 118 206 242 554 270 760 4 25 8 59 11 75 18 119 22
194 19 370 -1 110 -8 232 -14 270 -6 39 -14 86 -17 105 -75 461 -309 917 -646
1261 -159 162 -236 226 -413 342 -239 156 -578 296 -805 333 -19 3 -38 8 -42
10 -46 28 -544 51 -698 33z m-114 -820 c29 -27 39 -74 25 -112 -6 -15 -102
-120 -214 -232 l-204 -204 0 -204 c0 -217 -3 -234 -50 -265 -24 -15 -62 -17
-363 -19 -203 -1 -348 3 -368 9 -20 6 -41 23 -53 42 -18 29 -19 53 -19 374 0
369 2 386 53 414 16 9 111 13 376 14 l353 1 34 -32 34 -32 122 121 c66 66 133
129 147 139 34 23 94 17 127 -14z m1901 -517 c26 -15 53 -61 53 -92 0 -31 -27
-77 -53 -92 -34 -20 -1980 -21 -2019 -2 -37 19 -58 52 -58 92 0 43 14 69 50
91 28 16 90 17 1017 17 781 -1 993 -4 1010 -14z m-1901 -542 c2 0 11 -14 19
-31 11 -21 14 -43 10 -69 -5 -32 -35 -66 -214 -245 l-207 -208 1 -186 c0 -102
-3 -201 -7 -220 -8 -41 -51 -81 -87 -82 -14 0 -170 -2 -346 -2 -351 -2 -378 2
-403 57 -9 20 -12 122 -12 378 l0 351 36 33 35 34 346 0 c295 0 350 -2 379
-16 18 -9 36 -25 40 -36 5 -17 27 1 148 120 86 85 151 142 166 144 14 2 40 -2
59 -9 18 -7 35 -13 37 -13z m1918 -539 c52 -49 38 -145 -26 -172 -23 -9 -246
-12 -996 -13 -532 -1 -976 0 -988 2 -64 11 -104 89 -76 149 31 66 -27 63 1069
60 l991 -2 26 -24z m-2366 -730 c54 -29 55 -34 55 -405 1 -380 -1 -393 -59
-421 -29 -14 -79 -15 -384 -13 l-350 3 -27 28 -28 27 -3 353 c-3 314 -1 355
14 384 15 30 45 48 88 55 11 2 166 3 345 2 232 -1 333 -4 349 -13z m2341 -321
c68 -28 79 -125 19 -175 l-30 -25 -983 0 c-589 0 -994 4 -1008 9 -44 17 -67
51 -67 99 0 36 5 49 30 72 17 16 43 30 58 32 15 2 459 3 988 2 776 0 967 -3
993 -14z"/>
<path d="M1190 3731 c-10 -4 -16 -21 -17 -45 l-2 -39 19 31 c10 16 26 34 35
40 16 8 16 9 -2 14 -10 3 -25 2 -33 -1z"/>
<path d="M1351 3702 c21 -18 61 -57 89 -86 l51 -53 54 55 c43 43 55 61 55 86
l0 31 -144 0 -144 0 39 -33z"/>
<path d="M1173 3445 c1 -88 4 -135 11 -136 6 -1 72 -2 147 -3 l135 -1 -35 26
c-20 15 -85 77 -145 138 -60 61 -110 111 -111 111 -1 0 -2 -61 -2 -135z"/>
<path d="M1580 3350 c0 -6 -11 -16 -25 -22 -19 -9 -22 -14 -12 -19 26 -15 52
-3 55 24 2 15 -1 27 -7 27 -6 0 -11 -5 -11 -10z"/>
<path d="M1175 2653 c-3 -8 -5 -27 -4 -41 0 -25 1 -25 10 -7 6 11 24 30 42 42
l31 23 -37 -2 c-21 -1 -38 -7 -42 -15z"/>
<path d="M1326 2657 c10 -6 52 -43 93 -84 l75 -73 53 52 c42 41 53 59 53 84
l0 31 -146 0 c-103 0 -140 -3 -128 -10z"/>
<path d="M1174 2386 l0 -146 150 0 c139 0 149 1 123 15 -31 16 -247 228 -264
258 -7 13 -9 -24 -9 -127z"/>
<path d="M1574 2279 c-10 -12 -28 -25 -39 -30 -15 -6 -10 -8 23 -8 40 -1 42 0
42 29 0 36 -1 36 -26 9z"/>
<path d="M1177 1593 c-2 -5 -4 -100 -3 -213 l1 -205 213 -1 212 -1 0 214 0
213 -209 0 c-116 0 -212 -3 -214 -7z"/>
</g>
</svg>
